<svg id="Layer_1" data-name="Layer 1" xmlns="http://www.w3.org/2000/svg" viewBox="0 0 200 200"><defs><style>.cls-1{fill:#FFFFFF}</style></defs><circle class="cls-1" cx="100" cy="100" r="35"/><circle id="dot" class="cls-1" cx="100" cy="25" r="6.35"/><circle id="dot-2" data-name="dot" class="cls-1" cx="130.51" cy="31.48" r="6.35"/><circle id="dot-3" data-name="dot" class="cls-1" cx="155.74" cy="49.82" r="6.35"/><circle id="dot-4" data-name="dot" class="cls-1" cx="171.33" cy="76.82" r="6.35"/><circle id="dot-5" data-name="dot" class="cls-1" cx="174.59" cy="107.84" r="6.35"/><circle id="dot-6" data-name="dot" class="cls-1" cx="164.95" cy="137.5" r="6.35"/><circle id="dot-7" data-name="dot" class="cls-1" cx="144.08" cy="160.68" r="6.35"/><circle id="dot-8" data-name="dot" class="cls-1" cx="115.59" cy="173.36" r="6.35"/><circle id="dot-9" data-name="dot" class="cls-1" cx="84.41" cy="173.36" r="6.35"/><circle id="dot-10" data-name="dot" class="cls-1" cx="55.92" cy="160.68" r="6.35"/><circle id="dot-11" data-name="dot" class="cls-1" cx="35.05" cy="137.5" r="6.35"/><circle id="dot-12" data-name="dot" class="cls-1" cx="25.41" cy="107.84" r="6.35"/><circle id="dot-13" data-name="dot" class="cls-1" cx="28.67" cy="76.82" r="6.35"/><circle id="dot-14" data-name="dot" class="cls-1" cx="44.26" cy="49.82" r="6.35"/><circle id="dot-15" data-name="dot" class="cls-1" cx="69.49" cy="31.48" r="6.35"/><circle id="dot2" class="cls-1" cx="100" cy="50" r="6.35"/><circle id="dot2-2" data-name="dot2" class="cls-1" cx="120.34" cy="54.32" r="6.35"/><circle id="dot2-3" data-name="dot2" class="cls-1" cx="137.16" cy="66.54" r="6.35"/><circle id="dot2-4" data-name="dot2" class="cls-1" cx="147.55" cy="84.55" r="6.35"/><circle id="dot2-5" data-name="dot2" class="cls-1" cx="149.73" cy="105.23" r="6.35"/><circle id="dot2-6" data-name="dot2" class="cls-1" cx="143.3" cy="125" r="6.35"/><circle id="dot2-7" data-name="dot2" class="cls-1" cx="129.39" cy="140.45" r="6.35"/><circle id="dot2-8" data-name="dot2" class="cls-1" cx="110.4" cy="148.91" r="6.35"/><circle id="dot2-9" data-name="dot2" class="cls-1" cx="89.6" cy="148.91" r="6.35"/><circle id="dot2-10" data-name="dot2" class="cls-1" cx="70.61" cy="140.45" r="6.35"/><circle id="dot2-11" data-name="dot2" class="cls-1" cx="56.7" cy="125" r="6.35"/><circle id="dot2-12" data-name="dot2" class="cls-1" cx="50.27" cy="105.23" r="6.35"/><circle id="dot2-13" data-name="dot2" class="cls-1" cx="52.45" cy="84.55" r="6.35"/><circle id="dot2-14" data-name="dot2" class="cls-1" cx="62.84" cy="66.54" r="6.35"/><circle id="dot2-15" data-name="dot2" class="cls-1" cx="79.66" cy="54.32" r="6.35"/></svg>